<svg width="138" height="26" viewBox="0 0 138 26" fill="none" xmlns="http://www.w3.org/2000/svg">
<path d="M1.23163 21.3408L0.439633 19.3728L5.57563 13.5888C5.84763 13.3008 6.12763 12.9728 6.41563 12.6048C6.71963 12.2208 7.00763 11.8288 7.27963 11.4288C7.55163 11.0288 7.76763 10.6368 7.92763 10.2528C8.10363 9.85278 8.19163 9.47678 8.19163 9.12478C8.19163 8.61278 8.08763 8.18078 7.87963 7.82878C7.68763 7.46078 7.39963 7.18078 7.01563 6.98878C6.64763 6.79678 6.19963 6.70078 5.67163 6.70078C5.20763 6.70078 4.75163 6.83678 4.30363 7.10878C3.85563 7.38078 3.44763 7.76478 3.07963 8.26078C2.71163 8.75678 2.42363 9.33278 2.21563 9.98878L0.223633 8.74078C0.495633 7.81278 0.903633 7.02078 1.44763 6.36478C2.00763 5.69278 2.67163 5.18078 3.43963 4.82878C4.22363 4.47678 5.07163 4.30078 5.98363 4.30078C6.92763 4.30078 7.76763 4.50078 8.50363 4.90078C9.23963 5.28478 9.81563 5.82878 10.2316 6.53278C10.6476 7.22078 10.8556 8.02078 10.8556 8.93278C10.8556 9.30078 10.8156 9.67678 10.7356 10.0608C10.6556 10.4448 10.5276 10.8448 10.3516 11.2608C10.1756 11.6608 9.95163 12.0848 9.67963 12.5328C9.40763 12.9648 9.07963 13.4208 8.69563 13.9008C8.32763 14.3808 7.90363 14.8848 7.42363 15.4128L3.60763 19.5648L3.12763 18.8448H11.3836V21.3408H1.23163Z" fill="white"/>
<path d="M19.9353 21.3408V7.80478L20.5353 7.94878L15.0153 14.6928L14.9193 14.4048H25.3593V16.7808H13.3113L12.2073 14.6208L20.4393 4.54078H22.4313V21.3408H19.9353Z" fill="white"/>
<g clip-path="url(#clip0_419_39)">
<path fill-rule="evenodd" clip-rule="evenodd" d="M57 3.20508H31.3594V9.61523C32.2094 9.61523 33.0246 9.95291 33.6257 10.554C34.2268 11.155 34.5645 11.9703 34.5645 12.8203C34.5645 13.6704 34.2268 14.4856 33.6257 15.0866C33.0246 15.6877 32.2094 16.0254 31.3594 16.0254V22.4355H57V16.0254C56.15 16.0254 55.3347 15.6877 54.7337 15.0866C54.1326 14.4856 53.7949 13.6704 53.7949 12.8203C53.7949 11.9703 54.1326 11.155 54.7337 10.554C55.3347 9.95291 56.15 9.61523 57 9.61523V3.20508ZM44.1797 16.0254C45.0297 16.0254 45.845 15.6877 46.446 15.0866C47.0471 14.4856 47.3848 13.6704 47.3848 12.8203C47.3848 11.9703 47.0471 11.155 46.446 10.554C45.845 9.95291 45.0297 9.61523 44.1797 9.61523C43.3296 9.61523 42.5144 9.95291 41.9134 10.554C41.3123 11.155 40.9746 11.9703 40.9746 12.8203C40.9746 13.6704 41.3123 14.4856 41.9134 15.0866C42.5144 15.6877 43.3296 16.0254 44.1797 16.0254Z" fill="#C4242B"/>
</g>
<path d="M65.616 21.9522V6.13624H68.088V21.9522H65.616ZM63 11.7522V9.35224H71.016V11.7522H63Z" fill="white"/>
<path d="M73.4829 21.9522V9.35224H75.9549V21.9522H73.4829ZM74.6829 6.56824C74.1549 6.56824 73.7469 6.43224 73.4589 6.16024C73.1709 5.88824 73.0269 5.50424 73.0269 5.00824C73.0269 4.54424 73.1709 4.16824 73.4589 3.88024C73.7629 3.59224 74.1709 3.44824 74.6829 3.44824C75.2109 3.44824 75.6189 3.58424 75.9069 3.85624C76.1949 4.12824 76.3389 4.51224 76.3389 5.00824C76.3389 5.47224 76.1869 5.84824 75.8829 6.13624C75.5949 6.42424 75.1949 6.56824 74.6829 6.56824Z" fill="white"/>
<path d="M84.9146 22.1922C83.7466 22.1922 82.6986 21.9042 81.7706 21.3282C80.8586 20.7522 80.1306 19.9682 79.5866 18.9762C79.0586 17.9842 78.7946 16.8722 78.7946 15.6402C78.7946 14.4082 79.0586 13.2962 79.5866 12.3042C80.1306 11.3122 80.8586 10.5282 81.7706 9.95224C82.6986 9.37624 83.7466 9.08824 84.9146 9.08824C86.0346 9.08824 87.0506 9.32024 87.9626 9.78424C88.8906 10.2322 89.5946 10.8482 90.0746 11.6322L88.7066 13.3122C88.4506 12.9442 88.1226 12.6082 87.7226 12.3042C87.3226 12.0002 86.8986 11.7602 86.4506 11.5842C86.0026 11.4082 85.5706 11.3202 85.1546 11.3202C84.3866 11.3202 83.6986 11.5122 83.0906 11.8962C82.4986 12.2642 82.0266 12.7762 81.6746 13.4322C81.3226 14.0882 81.1466 14.8242 81.1466 15.6402C81.1466 16.4562 81.3306 17.1922 81.6986 17.8482C82.0666 18.4882 82.5546 19.0002 83.1626 19.3842C83.7706 19.7682 84.4426 19.9602 85.1786 19.9602C85.6106 19.9602 86.0266 19.8882 86.4266 19.7442C86.8426 19.6002 87.2426 19.3842 87.6266 19.0962C88.0106 18.8082 88.3706 18.4562 88.7066 18.0402L90.0746 19.7202C89.5626 20.4402 88.8266 21.0322 87.8666 21.4962C86.9226 21.9602 85.9386 22.1922 84.9146 22.1922Z" fill="white"/>
<path d="M94.4704 18.0162L94.3504 15.3282L100.374 9.35224H103.71L94.4704 18.0162ZM92.2144 21.9522V4.19224H94.6864V21.9522H92.2144ZM100.71 21.9522L95.9584 16.4082L97.7104 14.8002L103.878 21.9522H100.71Z" fill="white"/>
<path d="M111.004 22.1922C109.708 22.1922 108.556 21.9202 107.548 21.3762C106.556 20.8162 105.772 20.0562 105.196 19.0962C104.636 18.1362 104.356 17.0322 104.356 15.7842C104.356 14.7922 104.516 13.8882 104.836 13.0722C105.156 12.2562 105.596 11.5522 106.156 10.9602C106.732 10.3522 107.412 9.88824 108.196 9.56824C108.996 9.23224 109.86 9.06424 110.788 9.06424C111.604 9.06424 112.364 9.22424 113.068 9.54424C113.772 9.84824 114.38 10.2722 114.892 10.8162C115.42 11.3602 115.82 12.0082 116.092 12.7602C116.38 13.4962 116.516 14.3042 116.5 15.1842L116.476 16.2402H106.18L105.628 14.2722H114.34L113.98 14.6802V14.1042C113.932 13.5762 113.756 13.1042 113.452 12.6882C113.148 12.2722 112.764 11.9442 112.3 11.7042C111.836 11.4642 111.332 11.3442 110.788 11.3442C109.924 11.3442 109.196 11.5122 108.604 11.8482C108.012 12.1682 107.564 12.6482 107.26 13.2882C106.956 13.9122 106.804 14.6882 106.804 15.6162C106.804 16.4962 106.988 17.2642 107.356 17.9202C107.724 18.5602 108.244 19.0562 108.916 19.4082C109.588 19.7602 110.364 19.9362 111.244 19.9362C111.868 19.9362 112.444 19.8322 112.972 19.6242C113.516 19.4162 114.1 19.0402 114.724 18.4962L115.972 20.2482C115.588 20.6322 115.116 20.9682 114.556 21.2562C114.012 21.5442 113.428 21.7762 112.804 21.9522C112.196 22.1122 111.596 22.1922 111.004 22.1922Z" fill="white"/>
<path d="M120.554 21.9522V6.13624H123.026V21.9522H120.554ZM117.938 11.7522V9.35224H125.954V11.7522H117.938Z" fill="white"/>
<path d="M132.682 22.1922C131.626 22.1922 130.674 22.0082 129.826 21.6402C128.978 21.2722 128.274 20.7282 127.714 20.0082L129.394 18.5682C129.874 19.1282 130.394 19.5362 130.954 19.7922C131.53 20.0322 132.178 20.1522 132.898 20.1522C133.186 20.1522 133.45 20.1202 133.69 20.0562C133.946 19.9762 134.162 19.8642 134.338 19.7202C134.53 19.5762 134.674 19.4082 134.77 19.2162C134.866 19.0082 134.914 18.7842 134.914 18.5442C134.914 18.1282 134.762 17.7922 134.458 17.5362C134.298 17.4242 134.042 17.3042 133.69 17.1762C133.354 17.0322 132.914 16.8882 132.37 16.7442C131.442 16.5042 130.682 16.2322 130.09 15.9282C129.498 15.6242 129.042 15.2802 128.722 14.8962C128.482 14.5922 128.306 14.2642 128.194 13.9122C128.082 13.5442 128.026 13.1442 128.026 12.7122C128.026 12.1842 128.138 11.7042 128.362 11.2722C128.602 10.8242 128.922 10.4402 129.322 10.1202C129.738 9.78424 130.218 9.52824 130.762 9.35224C131.322 9.17624 131.914 9.08824 132.538 9.08824C133.13 9.08824 133.714 9.16824 134.29 9.32824C134.882 9.48824 135.426 9.72024 135.922 10.0242C136.418 10.3282 136.834 10.6882 137.17 11.1042L135.754 12.6642C135.45 12.3602 135.114 12.0962 134.746 11.8722C134.394 11.6322 134.034 11.4482 133.666 11.3202C133.298 11.1922 132.962 11.1282 132.658 11.1282C132.322 11.1282 132.018 11.1602 131.746 11.2242C131.474 11.2882 131.242 11.3842 131.05 11.5122C130.874 11.6402 130.738 11.8002 130.642 11.9922C130.546 12.1842 130.498 12.4002 130.498 12.6402C130.514 12.8482 130.562 13.0482 130.642 13.2402C130.738 13.4162 130.866 13.5682 131.026 13.6962C131.202 13.8242 131.466 13.9602 131.818 14.1042C132.17 14.2482 132.618 14.3842 133.162 14.5122C133.962 14.7202 134.618 14.9522 135.13 15.2082C135.658 15.4482 136.074 15.7282 136.378 16.0482C136.698 16.3522 136.922 16.7042 137.05 17.1042C137.178 17.5042 137.242 17.9522 137.242 18.4482C137.242 19.1682 137.034 19.8162 136.618 20.3922C136.218 20.9522 135.674 21.3922 134.986 21.7122C134.298 22.0322 133.53 22.1922 132.682 22.1922Z" fill="white"/>
<defs>
<clipPath id="clip0_419_39">
<rect width="25.6406" height="25.6406" fill="white" transform="translate(31.3594)"/>
</clipPath>
</defs>
</svg>
